<?xml version="1.0" standalone="no"?><!DOCTYPE svg PUBLIC "-//W3C//DTD SVG 1.1//EN" "http://www.w3.org/Graphics/SVG/1.1/DTD/svg11.dtd"><svg t="1748434061649" class="icon" viewBox="0 0 1024 1024" version="1.1" xmlns="http://www.w3.org/2000/svg" p-id="1067" xmlns:xlink="http://www.w3.org/1999/xlink" width="200" height="200"><path d="M723.968 109.0048H310.272a196.3008 196.3008 0 0 0-196.1472 196.096v413.7472a196.352 196.352 0 0 0 196.1472 196.1472h413.696a196.352 196.352 0 0 0 196.1472-196.1472V305.1008a196.3008 196.3008 0 0 0-196.1472-196.096z m124.4672 609.8432a124.5696 124.5696 0 0 1-124.4672 124.4672H310.272a124.5696 124.5696 0 0 1-124.4672-124.4672V305.1008a124.5696 124.5696 0 0 1 124.4672-124.416h413.696a124.5696 124.5696 0 0 1 124.4672 124.416z" fill="#545863" p-id="1068"></path><path d="M650.24 291.84H394.24a35.84 35.84 0 0 0 0 71.68h256a35.84 35.84 0 1 0 0-71.68zM547.84 423.6288a35.84 35.84 0 0 0-25.6-10.9056 35.0208 35.0208 0 0 0-25.6 10.24l-128 126.1056a35.84 35.84 0 0 0 50.3808 51.2l66.56-65.9456v159.3856a35.84 35.84 0 0 0 71.68 0v-156.4672l60.2624 62.3616a35.84 35.84 0 0 0 51.5584-49.8176z" fill="#545863" p-id="1069"></path></svg>